<svg xmlns="http://www.w3.org/2000/svg" width="19" height="20" viewBox="0 0 19 20">
  <g id="Basket" transform="translate(0 0)">
    <path id="Basket_2" d="M21.4,15.747l-.755-5.872c-.483-2.637-2.231-3.516-3.707-3.516A4.919,4.919,0,0,0,8.393,3.634.774.774,0,1,0,9.526,4.689V4.6a3.372,3.372,0,0,1,4.762-.264,3.438,3.438,0,0,1,1.089,2.022H7.137c-1.414,0-3.127.879-3.707,3.56l-.22,1.318a.773.773,0,0,0,1.52.264l.211-1.292c.325-1.468,1.142-2.347,2.2-2.347h9.8c1.107,0,1.924.879,2.188,2.285l.747,5.81a4.4,4.4,0,0,1-.571,3.437c-.571.694-1.669,1.028-3.259,1.028H8.033a4.2,4.2,0,0,1-3.171-1.143A4.063,4.063,0,0,1,4.2,15.958a.768.768,0,1,0-1.52-.22,4.93,4.93,0,0,0,5.359,6.223h8c2.073,0,3.514-.51,4.393-1.556A5.791,5.791,0,0,0,21.4,15.747Zm-6.9-3.718a1.082,1.082,0,0,0,.343.07.878.878,0,0,0,.615-.264.7.7,0,0,0,.211-.29.738.738,0,0,0,.07-.334.569.569,0,0,0,0-.176.525.525,0,0,0-.053-.167.352.352,0,0,0-.079-.149,1.266,1.266,0,0,0-.237-.246,1.119,1.119,0,0,0-.325-.132.756.756,0,0,0-.343,0,.615.615,0,0,0-.167.053.665.665,0,0,0-.158.079l-.132.114a.387.387,0,0,0-.106.132l-.088.149v.167a.582.582,0,0,0,0,.176.729.729,0,0,0,.062.334A.879.879,0,0,0,14.507,12.029Zm-4.366-.809a.865.865,0,1,1-1.731-.009.572.572,0,0,1,0-.176.527.527,0,0,1,.053-.167.493.493,0,0,1,.079-.149.386.386,0,0,1,.105-.132.57.57,0,0,1,.132-.106.491.491,0,0,1,.149-.079A.527.527,0,0,1,9.1,10.35a.757.757,0,0,1,.343,0,.527.527,0,0,1,.167.053.49.49,0,0,1,.149.079A.57.57,0,0,1,9.9,10.6a.386.386,0,0,1,.105.132.875.875,0,0,1,.088.149l.053.167A1.1,1.1,0,0,1,10.141,11.22Z" transform="translate(-2.5 -2)" fill="#200e32" fill-rule="evenodd"/>
  </g>
</svg>
