<svg xmlns="http://www.w3.org/2000/svg" width="20.835" height="15.008" viewBox="0 0 20.835 15.008">
  <path id="Icon_ionic-ios-arrow-round-back" data-name="Icon ionic-ios-arrow-round-back" d="M15.43,11.539a1.08,1.08,0,0,1,.007,1.438l-4.393,4.76H27.783a1.02,1.02,0,0,1,0,2.032H11.045l4.4,4.76a1.088,1.088,0,0,1-.007,1.438.889.889,0,0,1-1.324-.008L8.15,19.472h0a1.153,1.153,0,0,1-.2-.32,1.037,1.037,0,0,1-.072-.391,1.063,1.063,0,0,1,.268-.711l5.963-6.487A.875.875,0,0,1,15.43,11.539Z" transform="translate(-7.882 -11.252)" fill="#222"/>
</svg>
