<svg xmlns="http://www.w3.org/2000/svg" width="20" height="20" viewBox="0 0 20 20">
  <path id="Category-1" d="M21.991,5.1V8.111a3.123,3.123,0,0,1-.86,2.2A3,3,0,0,1,19,11.237H17.777a.836.836,0,0,1,0-1.658h1.188a1.4,1.4,0,0,0,1-.432,1.456,1.456,0,0,0,.4-1.027V5.1a1.435,1.435,0,0,0-1.4-1.431H16A1.416,1.416,0,0,0,14.6,5.1V9.617a.834.834,0,0,1-.835.815.8.8,0,0,1-.569-.258.834.834,0,0,1-.22-.595V5.1a3.122,3.122,0,0,1,.883-2.19A2.994,2.994,0,0,1,16,2h2.961A3.133,3.133,0,0,1,21.991,5.1ZM8,2H5.035A3.086,3.086,0,0,0,2,5.1V8.12a3.076,3.076,0,0,0,3.035,3.089H8a2.994,2.994,0,0,0,2.145-.9A3.121,3.121,0,0,0,11.03,8.12V5.1A3.076,3.076,0,0,0,8,2ZM9.4,8.12a1.456,1.456,0,0,1-.4,1.027,1.4,1.4,0,0,1-1,.432H5.035a1.387,1.387,0,0,1-1.019-.419,1.446,1.446,0,0,1-.41-1.04V5.1a1.446,1.446,0,0,1,.42-1.022,1.386,1.386,0,0,1,1.009-.409H8A1.426,1.426,0,0,1,9.4,5.1ZM16,12.791h2.961A3.076,3.076,0,0,1,22,15.88V18.9A3.086,3.086,0,0,1,18.965,22H16a3.077,3.077,0,0,1-3.026-3.1V15.88A3.058,3.058,0,0,1,16,12.791Zm3.954,7.125a1.437,1.437,0,0,0,.408-1.014V15.88a1.446,1.446,0,0,0-.41-1.012,1.387,1.387,0,0,0-.991-.419H16a1.416,1.416,0,0,0-1.4,1.431V18.9a1.437,1.437,0,0,0,.408,1.014,1.377,1.377,0,0,0,.994.416h2.961A1.377,1.377,0,0,0,19.959,19.916ZM2,18.892V15.88a3.121,3.121,0,0,1,.889-2.187,2.994,2.994,0,0,1,2.145-.9H6.251a.811.811,0,0,1,.779.387.849.849,0,0,1,0,.885.811.811,0,0,1-.779.387H5.035A1.425,1.425,0,0,0,3.624,15.88v2.984a1.454,1.454,0,0,0,1.411,1.431H8.014a1.387,1.387,0,0,0,1-.416,1.446,1.446,0,0,0,.414-1.015V14.383a.841.841,0,0,1,.366-.856.8.8,0,0,1,.914.027.843.843,0,0,1,.316.876v4.462a3.067,3.067,0,0,1-3.035,3.1H5.035A3.133,3.133,0,0,1,2,18.892Z" transform="translate(-2 -2)" fill="#200e32" fill-rule="evenodd"/>
</svg>
