<svg xmlns="http://www.w3.org/2000/svg" width="17" height="17" viewBox="0 0 17 17">
  <g id="Group_2948" data-name="Group 2948" transform="translate(0.5 0.5)">
    <path id="Path_1425" data-name="Path 1425" d="M11.428,0h2.613A1.967,1.967,0,0,1,16,1.976V4.611a1.968,1.968,0,0,1-1.958,1.976H11.428A1.968,1.968,0,0,1,9.469,4.611V1.976A1.968,1.968,0,0,1,11.428,0ZM1.959,0H4.572A1.968,1.968,0,0,1,6.531,1.976V4.611A1.968,1.968,0,0,1,4.572,6.587H1.959A1.968,1.968,0,0,1,0,4.611V1.976A1.968,1.968,0,0,1,1.959,0Zm0,9.413H4.572A1.968,1.968,0,0,1,6.531,11.39v2.634A1.968,1.968,0,0,1,4.572,16H1.959A1.968,1.968,0,0,1,0,14.024V11.39A1.968,1.968,0,0,1,1.959,9.413Zm9.469,0h2.613A1.968,1.968,0,0,1,16,11.39v2.634A1.968,1.968,0,0,1,14.042,16H11.428a1.968,1.968,0,0,1-1.959-1.976V11.39A1.968,1.968,0,0,1,11.428,9.413Z" transform="translate(0 0)" fill="none" stroke="#969696" stroke-linecap="round" stroke-linejoin="round" stroke-width="1" fill-rule="evenodd"/>
  </g>
</svg>
