<svg xmlns="http://www.w3.org/2000/svg" width="120" height="120" viewBox="0 0 120 120">
  <path id="Icon_ionic-ios-checkmark-circle" data-name="Icon ionic-ios-checkmark-circle" d="M63.375,3.375a60,60,0,1,0,60,60A59.991,59.991,0,0,0,63.375,3.375ZM94.1,46.788,55.529,85.529H55.5a5.21,5.21,0,0,1-3.346,1.587,5.05,5.05,0,0,1-3.375-1.644L32.625,69.317a1.149,1.149,0,0,1,0-1.644l5.135-5.135a1.115,1.115,0,0,1,1.615,0L52.183,75.346,87.375,39.894a1.139,1.139,0,0,1,.808-.346h0a1.047,1.047,0,0,1,.808.346l5.048,5.221A1.137,1.137,0,0,1,94.1,46.788Z" transform="translate(-3.375 -3.375)" fill="#0478ed"/>
</svg>
