<svg xmlns="http://www.w3.org/2000/svg" width="39.262" height="22.903" viewBox="0 0 39.262 22.903">
  <g id="fast" transform="translate(0 -7)">
    <path id="Path_58" data-name="Path 58" d="M8.09,19.636H4.818a.818.818,0,0,1,0-1.636H8.09a.818.818,0,0,1,0,1.636Z" transform="translate(2.544 6.995)" fill="#444"/>
    <path id="Path_59" data-name="Path 59" d="M28.633,24.723H26.588a.818.818,0,1,1,0-1.636h1.366l1.1-5.876a5.725,5.725,0,0,0-5.74-5.575H17.945l-2.6,11.451h4.7a.818.818,0,1,1,0,1.636H14.318a.818.818,0,0,1-.8-1l2.974-13.087a.817.817,0,0,1,.8-.638h6.023a7.371,7.371,0,0,1,7.362,7.362l-1.242,6.694A.816.816,0,0,1,28.633,24.723Z" transform="translate(8.585 1.908)" fill="#444"/>
    <path id="Path_60" data-name="Path 60" d="M21.09,24.18a4.09,4.09,0,1,1,4.09-4.09A4.094,4.094,0,0,1,21.09,24.18Zm0-6.544a2.454,2.454,0,1,0,2.454,2.454A2.457,2.457,0,0,0,21.09,17.636Z" transform="translate(10.811 5.723)" fill="#444"/>
    <path id="Path_61" data-name="Path 61" d="M10.09,24.18a4.09,4.09,0,1,1,4.09-4.09A4.094,4.094,0,0,1,10.09,24.18Zm0-6.544a2.454,2.454,0,1,0,2.454,2.454A2.457,2.457,0,0,0,10.09,17.636Z" transform="translate(3.816 5.723)" fill="#444"/>
    <path id="Path_62" data-name="Path 62" d="M9.362,10.636H2.818A.818.818,0,1,1,2.818,9H9.362a.818.818,0,1,1,0,1.636Z" transform="translate(1.272 1.272)" fill="#444"/>
    <path id="Path_63" data-name="Path 63" d="M10,13.636H1.818a.818.818,0,1,1,0-1.636H10a.818.818,0,1,1,0,1.636Z" transform="translate(0.636 3.18)" fill="#444"/>
    <path id="Path_64" data-name="Path 64" d="M10.634,16.636H.818A.818.818,0,1,1,.818,15h9.816a.818.818,0,1,1,0,1.636Z" transform="translate(0 5.087)" fill="#444"/>
    <path id="Path_65" data-name="Path 65" d="M20.359,26.631H14.634a.818.818,0,1,1,0-1.636h5.073L23.423,8.636H4.818A.818.818,0,1,1,4.818,7H24.449a.818.818,0,0,1,.8,1l-4.09,18a.819.819,0,0,1-.8.638Z" transform="translate(2.544 0)" fill="#444"/>
  </g>
</svg>
