<svg xmlns="http://www.w3.org/2000/svg" width="26.33" height="15.359" viewBox="0 0 26.33 15.359">
  <g id="fast" transform="translate(0 -7)">
    <path id="Path_58" data-name="Path 58" d="M6.743,19.1H4.549a.549.549,0,0,1,0-1.1H6.743a.549.549,0,0,1,0,1.1Z" transform="translate(0.388 1.068)" fill="#444"/>
    <path id="Path_59" data-name="Path 59" d="M23.648,19.874H22.277a.549.549,0,0,1,0-1.1h.916l.739-3.941a3.839,3.839,0,0,0-3.85-3.739h-3.6l-1.745,7.679h3.153a.549.549,0,0,1,0,1.1h-3.84a.548.548,0,0,1-.535-.669l1.994-8.777A.548.548,0,0,1,16.043,10h4.039a4.943,4.943,0,0,1,4.937,4.937l-.833,4.489A.547.547,0,0,1,23.648,19.874Z" transform="translate(1.31 0.291)" fill="#444"/>
    <path id="Path_60" data-name="Path 60" d="M19.743,21.485a2.743,2.743,0,1,1,2.743-2.743A2.746,2.746,0,0,1,19.743,21.485Zm0-4.388a1.646,1.646,0,1,0,1.646,1.646A1.648,1.648,0,0,0,19.743,17.1Z" transform="translate(1.65 0.874)" fill="#444"/>
    <path id="Path_61" data-name="Path 61" d="M8.743,21.485a2.743,2.743,0,1,1,2.743-2.743A2.746,2.746,0,0,1,8.743,21.485Zm0-4.388a1.646,1.646,0,1,0,1.646,1.646A1.648,1.648,0,0,0,8.743,17.1Z" transform="translate(0.582 0.874)" fill="#444"/>
    <path id="Path_62" data-name="Path 62" d="M6.937,10.1H2.549a.549.549,0,1,1,0-1.1H6.937a.549.549,0,1,1,0,1.1Z" transform="translate(0.194 0.194)" fill="#444"/>
    <path id="Path_63" data-name="Path 63" d="M7.034,13.1H1.549a.549.549,0,1,1,0-1.1H7.034a.549.549,0,1,1,0,1.1Z" transform="translate(0.097 0.485)" fill="#444"/>
    <path id="Path_64" data-name="Path 64" d="M7.131,16.1H.549a.549.549,0,1,1,0-1.1H7.131a.549.549,0,1,1,0,1.1Z" transform="translate(0 0.777)" fill="#444"/>
    <path id="Path_65" data-name="Path 65" d="M14.971,20.165h-3.84a.549.549,0,1,1,0-1.1h3.4L17.026,8.1H4.549a.549.549,0,1,1,0-1.1H17.713a.548.548,0,0,1,.535.669L15.506,19.737a.549.549,0,0,1-.535.428Z" transform="translate(0.388)" fill="#444"/>
  </g>
</svg>
