<svg xmlns="http://www.w3.org/2000/svg" width="14.383" height="13.626" viewBox="0 0 14.383 13.626">
  <g id="Heart_4" transform="translate(0 0)">
    <path id="Path_33961" d="M508.511,688.516a26.36,26.36,0,0,1-4.559-3.55,9.07,9.07,0,0,1-2.17-3.459c-.815-2.532.137-5.431,2.8-6.289a4.525,4.525,0,0,1,4.107.691,4.532,4.532,0,0,1,4.107-.691c2.662.858,3.621,3.756,2.806,6.289a9.071,9.071,0,0,1-2.17,3.459,26.362,26.362,0,0,1-4.559,3.55l-.178.11Z" transform="translate(-501.5 -675)" fill="#47a9ff" fill-rule="evenodd"/>
  </g>
</svg>
