<svg xmlns="http://www.w3.org/2000/svg" width="20.128" height="22.857" viewBox="0 0 20.128 22.857">
  <g id="Group_851" data-name="Group 851" transform="translate(-29.625 -22.502)">
    <path id="Path_44" data-name="Path 44" d="M48.617,45.413l.137,1.837a1.924,1.924,0,0,1-2.087,1.7H32.712a1.924,1.924,0,0,1-2.087-1.7L31.669,33.2a1.924,1.924,0,0,1,2.087-1.7H45.622a1.924,1.924,0,0,1,2.087,1.7l.908,12.209" transform="translate(0 -4.594)" fill="none" stroke="#cdd2d3" stroke-linecap="round" stroke-miterlimit="10" stroke-width="2"/>
    <path id="Path_45" data-name="Path 45" d="M49.961,26.907c0-1.881-1.869-3.405-4.173-3.405a4.826,4.826,0,0,0-2.413.626,5.174,5.174,0,0,0-1.31,1.3" transform="translate(-6.099)" fill="none" stroke="#cdd2d3" stroke-linecap="round" stroke-miterlimit="10" stroke-width="2"/>
    <path id="Path_46" data-name="Path 46" d="M40,29.162a2.929,2.929,0,0,1,.582-1.734" transform="translate(-4.484 -2.255)" fill="none" stroke="#cdd2d3" stroke-linecap="round" stroke-miterlimit="10" stroke-width="2"/>
    <path id="Path_47" data-name="Path 47" d="M52.707,49.85c0,1.495-4.492,5.208-4.766,5.4a.576.576,0,0,1-.757.012c-.242-.185-4.809-3.79-4.809-5.412a2.6,2.6,0,0,1,2.793-2.61,2.844,2.844,0,0,1,2.377,1.235,2.824,2.824,0,0,1,2.371-1.235A2.671,2.671,0,0,1,52.707,49.85Z" transform="translate(-7.621 -15.055)" fill="#cdd2d3"/>
  </g>
</svg>
