<svg xmlns="http://www.w3.org/2000/svg" width="18.791" height="19.839" viewBox="0 0 18.791 19.839">
  <g id="Home" transform="translate(0 0)">
    <path id="Path_34076" d="M10.422,20.261h-4a2.365,2.365,0,0,1-2.357-2.348V9.956A1.47,1.47,0,0,1,4.6,8.835l.7-.522a.783.783,0,0,0-.9-1.243l-.722.539A3.026,3.026,0,0,0,2.5,9.956v7.965a3.93,3.93,0,0,0,3.922,3.922h4a.783.783,0,0,0,0-1.565Z" transform="translate(-2.5 -2.004)" fill="#47a9ff"/>
    <path id="Path_34077" d="M21.291,9.939a3.052,3.052,0,0,0-1.139-2.348L14.144,2.8a3.609,3.609,0,0,0-4.522,0l-1.9,1.383a.8.8,0,1,0,.93,1.3l1.93-1.443a2.052,2.052,0,0,1,2.609,0L19.2,8.826a1.47,1.47,0,0,1,.556,1.13v7.965A2.348,2.348,0,0,1,17.4,20.27H15.622a.33.33,0,0,1-.33-.33V16.348a2.078,2.078,0,0,0-2.07-2.078H10.613a2.078,2.078,0,0,0-2.078,2.078v1.374a.783.783,0,0,0,1.565,0V16.348a.5.5,0,0,1,.5-.513h2.609a.5.5,0,0,1,.5.5v3.6a1.9,1.9,0,0,0,1.9,1.9h1.739a3.922,3.922,0,0,0,3.922-3.922Z" transform="translate(-2.5 -2.004)" fill="#47a9ff"/>
  </g>
</svg>
