<svg xmlns="http://www.w3.org/2000/svg" width="24.771" height="27.38" viewBox="0 0 24.771 27.38">
  <g id="Icon_feather-box" data-name="Icon feather-box" transform="translate(-3.474 -1.966)">
    <path id="Path_87" data-name="Path 87" d="M27.22,20.672v-10.1A2.524,2.524,0,0,0,25.958,8.39L17.122,3.341a2.524,2.524,0,0,0-2.524,0L5.762,8.39A2.524,2.524,0,0,0,4.5,10.574v10.1a2.524,2.524,0,0,0,1.262,2.184L14.6,27.9a2.524,2.524,0,0,0,2.524,0l8.836-5.049a2.524,2.524,0,0,0,1.262-2.184Z" fill="none" stroke="#444" stroke-linecap="round" stroke-linejoin="round" stroke-width="2"/>
    <path id="Path_88" data-name="Path 88" d="M4.905,10.44l11.019,6.374L26.944,10.44" transform="translate(-0.064 -1.179)" fill="none" stroke="#444" stroke-linecap="round" stroke-linejoin="round" stroke-width="2"/>
    <path id="Path_89" data-name="Path 89" d="M18,30.723V18" transform="translate(-2.14 -2.377)" fill="none" stroke="#444" stroke-linecap="round" stroke-linejoin="round" stroke-width="2"/>
  </g>
</svg>
