<svg xmlns="http://www.w3.org/2000/svg" width="19.123" height="21.799" viewBox="0 0 19.123 21.799">
  <g id="Group_852" data-name="Group 852" transform="translate(-4 -2)">
    <path id="Path_49" data-name="Path 49" d="M14.578,12.9a5.515,5.515,0,0,0,5.578-5.45A5.579,5.579,0,0,0,9,7.45a5.515,5.515,0,0,0,5.578,5.45Zm0-9.342A3.939,3.939,0,0,1,18.561,7.45a3.985,3.985,0,0,1-7.968,0A3.939,3.939,0,0,1,14.578,3.557Z" transform="translate(-1.016)" fill="#cdd2d3"/>
    <path id="Path_50" data-name="Path 50" d="M14.358,18H12.765A8.666,8.666,0,0,0,4,26.564a.788.788,0,0,0,.8.779H22.326a.788.788,0,0,0,.8-.779A8.666,8.666,0,0,0,14.358,18ZM5.641,25.785a7.113,7.113,0,0,1,7.123-6.228h1.594a7.113,7.113,0,0,1,7.123,6.228Z" transform="translate(0 -3.544)" fill="#cdd2d3"/>
  </g>
</svg>
