<svg xmlns="http://www.w3.org/2000/svg" width="26.149" height="15.589" viewBox="0 0 26.149 15.589">
  <path id="Path_56" data-name="Path 56" d="M25.4,108.917a.754.754,0,0,0,.754-.754v-4.023a.754.754,0,0,0-.754-.754H.754a.754.754,0,0,0-.754.754v4.023a.754.754,0,0,0,.754.754,2.263,2.263,0,1,1,0,4.526A.754.754,0,0,0,0,114.2v4.023a.754.754,0,0,0,.754.754H25.4a.754.754,0,0,0,.754-.754V114.2a.754.754,0,0,0-.754-.754,2.263,2.263,0,0,1,0-4.526Zm-.754,5.959v2.59H8.8V115.2a.754.754,0,0,0-1.509,0v2.263H1.509v-2.59a3.772,3.772,0,0,0,0-7.391v-2.59H7.292v2.263a.754.754,0,1,0,1.509,0v-2.263h15.84v2.59a3.772,3.772,0,0,0,0,7.391Z" transform="translate(0 -103.385)" fill="#444"/>
</svg>
