<svg xmlns="http://www.w3.org/2000/svg" width="16" height="20" viewBox="0 0 16 20">
  <path id="Profile-1" d="M11.991,12.717a5.322,5.322,0,0,0,4.924-3.3,5.385,5.385,0,0,0-1.148-5.843,5.3,5.3,0,0,0-5.8-1.166,5.364,5.364,0,0,0,2.026,10.31Zm0-9.186A3.81,3.81,0,0,1,15.512,5.9a3.855,3.855,0,0,1-.83,4.182,3.792,3.792,0,0,1-4.156.826A3.854,3.854,0,0,1,9.3,4.649,3.789,3.789,0,0,1,11.991,3.531Zm4.545,11.579c1.661.334,2.744.994,3.2,1.962a3,3,0,0,1-.026,2.525c-.463.968-1.547,1.628-3.234,1.971a14.958,14.958,0,0,1-2.325.334,19.482,19.482,0,0,1-2.281.1H11.6a.766.766,0,0,1,0-1.522c.8.009,1.6-.018,2.4-.088a14.233,14.233,0,0,0,2.115-.3c1.2-.264,1.949-.642,2.185-1.144a1.407,1.407,0,0,0,0-1.214c-.236-.51-.988-.906-2.159-1.144a13.609,13.609,0,0,0-2.15-.308,22.39,22.39,0,0,0-4.064,0,14.347,14.347,0,0,0-2.124.3c-1.2.264-1.94.642-2.185,1.144a1.46,1.46,0,0,0-.131.607,1.5,1.5,0,0,0,.131.616,2.54,2.54,0,0,0,1.748,1.029.765.765,0,1,1-.385,1.478,3.871,3.871,0,0,1-2.7-1.848,2.966,2.966,0,0,1,0-2.525c.463-.994,1.547-1.637,3.216-1.98a16.035,16.035,0,0,1,2.386-.334,25.264,25.264,0,0,1,4.317,0A14.931,14.931,0,0,1,16.536,15.111Z" transform="translate(-4 -2)" fill="#200e32" fill-rule="evenodd"/>
</svg>
