<svg xmlns="http://www.w3.org/2000/svg" width="22.818" height="24.622" viewBox="0 0 22.818 24.622">
  <g id="Group_141" data-name="Group 141" transform="translate(-16.756 -422.245)">
    <path id="Path_49" data-name="Path 49" d="M15.2,14.122a6.133,6.133,0,0,0,6.2-6.061A6.2,6.2,0,0,0,9,8.061a6.133,6.133,0,0,0,6.2,6.061Zm0-10.39a4.381,4.381,0,0,1,4.431,4.329,4.432,4.432,0,0,1-8.861,0A4.381,4.381,0,0,1,15.2,3.732Z" transform="translate(12.961 420.245)" fill="#444"/>
    <path id="Path_50" data-name="Path 50" d="M16.36,18h-1.9A10.341,10.341,0,0,0,4,28.219a.94.94,0,0,0,.951.929H25.868a.94.94,0,0,0,.951-.929A10.341,10.341,0,0,0,16.36,18Zm-10.4,9.29a8.488,8.488,0,0,1,8.5-7.432h1.9a8.488,8.488,0,0,1,8.5,7.432Z" transform="translate(12.756 417.719)" fill="#444"/>
  </g>
</svg>
