<svg xmlns="http://www.w3.org/2000/svg" width="25.659" height="22.686" viewBox="0 0 25.659 22.686">
  <g id="Group_892" data-name="Group 892" transform="translate(-44.726 -324.544)">
    <path id="Icon_awesome-comment-dots" data-name="Icon awesome-comment-dots" d="M11.821,2.25C5.292,2.25,0,6.549,0,11.854a8.525,8.525,0,0,0,2.632,6.035A11.747,11.747,0,0,1,.1,22.313a.367.367,0,0,0-.069.4.362.362,0,0,0,.337.222,10.56,10.56,0,0,0,6.492-2.373,14.082,14.082,0,0,0,4.959.9c6.529,0,11.821-4.3,11.821-9.6S18.35,2.25,11.821,2.25Z" transform="translate(45.744 323.294)" fill="none" stroke="#444" stroke-width="2"/>
    <circle id="Ellipse_3" data-name="Ellipse 3" cx="1.5" cy="1.5" r="1.5" transform="translate(50 334)" fill="#444"/>
    <circle id="Ellipse_4" data-name="Ellipse 4" cx="1.5" cy="1.5" r="1.5" transform="translate(56 334)" fill="#444"/>
    <circle id="Ellipse_5" data-name="Ellipse 5" cx="1.5" cy="1.5" r="1.5" transform="translate(62 334)" fill="#444"/>
  </g>
</svg>
