<svg xmlns="http://www.w3.org/2000/svg" width="18.487" height="12.615" viewBox="0 0 18.487 12.615">
  <g id="voucher" transform="translate(0 -103.385)">
    <g id="Group_91" data-name="Group 91" transform="translate(0 103.385)">
      <g id="Group_90" data-name="Group 90">
        <path id="Path_56" data-name="Path 56" d="M17.953,107.861a.576.576,0,0,0,.533-.61V104a.576.576,0,0,0-.533-.61H.533A.576.576,0,0,0,0,104v3.256a.576.576,0,0,0,.533.61,1.848,1.848,0,0,1,0,3.662.576.576,0,0,0-.533.61v3.256a.576.576,0,0,0,.533.61h17.42a.576.576,0,0,0,.533-.61v-3.256a.576.576,0,0,0-.533-.61,1.848,1.848,0,0,1,0-3.662Zm-.533,4.822v2.1H6.221v-1.831a.576.576,0,0,0-.533-.61.576.576,0,0,0-.533.61v1.831H1.067v-2.1a3.163,3.163,0,0,0,0-5.981v-2.1H5.155v1.831a.576.576,0,0,0,.533.61.576.576,0,0,0,.533-.61v-1.831h11.2v2.1a3.163,3.163,0,0,0,0,5.981Z" transform="translate(0 -103.385)" fill="#cdd2d3"/>
      </g>
    </g>
    <g id="Group_93" data-name="Group 93" transform="translate(5.155 108.268)">
      <g id="Group_92" data-name="Group 92">
        <path id="Path_57" data-name="Path 57" d="M143.3,221.538a.576.576,0,0,0-.533.61v1.628a.538.538,0,1,0,1.067,0v-1.628A.576.576,0,0,0,143.3,221.538Z" transform="translate(-142.769 -221.538)" fill="#cdd2d3"/>
      </g>
    </g>
  </g>
</svg>
